<?xml version="1.0" encoding="UTF-8"?>
<svg version="1.1" xmlns="http://www.w3.org/2000/svg" width="300" height="300">
<path d="M0 0 C3.22734108 0.81668448 6.45904897 1.61542277 9.69058228 2.41532898 C11.38519803 2.83492776 13.07959312 3.25541865 14.77377319 3.67677307 C24.09136409 5.99117734 33.43308061 8.20139413 42.77746582 10.40463257 C44.31760211 10.76849778 45.85772295 11.13242841 47.39782715 11.49642944 C48.88374315 11.84736303 50.36966428 12.19827487 51.85559082 12.54916382 C52.56882004 12.71771881 53.28204926 12.8862738 54.01689148 13.05993652 C57.7900233 13.95052132 61.56477213 14.83346809 65.34191895 15.70687866 C66.12460144 15.88869186 66.90728394 16.07050507 67.71368408 16.25782776 C69.21226126 16.60572667 70.71130626 16.95161838 72.21087646 17.29521179 C77.30302141 18.47991036 77.30302141 18.47991036 79.52746582 19.59213257 C79.52746582 45.66213257 79.52746582 71.73213257 79.52746582 98.59213257 C61.70746582 98.59213257 43.88746582 98.59213257 25.52746582 98.59213257 C25.52746582 101.89213257 25.52746582 105.19213257 25.52746582 108.59213257 C27.12775635 108.58689575 28.72804687 108.58165894 30.37683105 108.57626343 C36.29007411 108.55822143 42.20331471 108.5467035 48.11657715 108.53720093 C50.68038339 108.53215887 53.24418673 108.52532543 55.8079834 108.51669312 C59.48401603 108.50462192 63.1600108 108.49890315 66.83605957 108.49447632 C68.5672831 108.48673439 68.5672831 108.48673439 70.33348083 108.47883606 C71.39450516 108.47876053 72.45552948 108.478685 73.54870605 108.47860718 C74.48802475 108.47638657 75.42734344 108.47416595 76.39512634 108.47187805 C78.52746582 108.59213257 78.52746582 108.59213257 79.52746582 109.59213257 C79.63070178 110.9657375 79.6659611 112.34455309 79.67272949 113.72201538 C79.67910934 114.60093445 79.6854892 115.47985352 79.69206238 116.38540649 C79.69373161 117.82578278 79.69373161 117.82578278 79.69543457 119.29525757 C79.69876297 120.28402893 79.70209137 121.27280029 79.70552063 122.29153442 C79.71059951 124.39661188 79.71292866 126.50169743 79.71276855 128.60678101 C79.71492833 131.78693566 79.73299861 134.96672813 79.7520752 138.14682007 C79.79234653 152.55991003 78.85803647 165.74943511 74.52746582 179.59213257 C74.20133301 180.65947632 73.8752002 181.72682007 73.53918457 182.82650757 C68.59311859 197.85167021 60.4362028 210.39799334 50.52746582 222.59213257 C49.4214502 224.02105835 49.4214502 224.02105835 48.29309082 225.47885132 C43.15415174 232.09571837 43.15415174 232.09571837 40.04699707 234.55697632 C37.41793017 236.6806102 35.63118079 238.95943705 33.52746582 241.59213257 C31.79579343 243.11695894 30.02241232 244.59543528 28.21496582 246.02963257 C25.15756465 248.4755535 22.12801252 250.91383553 19.21496582 253.52963257 C15.7770009 256.50752919 12.09817847 259.13493734 8.40246582 261.77963257 C7.80393799 262.20816528 7.20541016 262.636698 6.58874512 263.07821655 C-2.60639432 269.59213257 -2.60639432 269.59213257 -5.47253418 269.59213257 C-5.47253418 270.25213257 -5.47253418 270.91213257 -5.47253418 271.59213257 C-7.12253418 271.92213257 -8.77253418 272.25213257 -10.47253418 272.59213257 C-10.47253418 273.25213257 -10.47253418 273.91213257 -10.47253418 274.59213257 C-12.00298171 275.46624193 -13.54756012 276.31563481 -15.09753418 277.15463257 C-15.9560498 277.63029663 -16.81456543 278.10596069 -17.69909668 278.59603882 C-21.23168312 279.86478465 -22.87137356 279.65338705 -26.47253418 278.59213257 C-29.26819863 277.26151088 -31.89423992 275.70521823 -34.53503418 274.09213257 C-35.27801758 273.64651978 -36.02100098 273.20090698 -36.78649902 272.74179077 C-43.55455603 268.63753994 -50.03751146 264.19767924 -56.47253418 259.59213257 C-57.63849121 258.79935913 -57.63849121 258.79935913 -58.82800293 257.99057007 C-60.41240445 256.90900256 -61.95067895 255.76006797 -63.47253418 254.59213257 C-63.47253418 253.93213257 -63.47253418 253.27213257 -63.47253418 252.59213257 C-64.05647949 252.32658569 -64.6404248 252.06103882 -65.24206543 251.78744507 C-67.54072897 250.55558685 -69.22629811 249.2103328 -71.16003418 247.46713257 C-71.8535498 246.84451538 -72.54706543 246.22189819 -73.26159668 245.58041382 C-74.35601074 244.5962146 -74.35601074 244.5962146 -75.47253418 243.59213257 C-76.22276855 242.94631226 -76.97300293 242.30049194 -77.74597168 241.63510132 C-82.78575882 237.27473941 -87.2215915 232.71718684 -91.47253418 227.59213257 C-92.17120605 226.78131226 -92.86987793 225.97049194 -93.58972168 225.13510132 C-117.03734761 197.42795856 -125.06577844 167.93167829 -124.66003418 132.09213257 C-124.59815918 124.33713257 -124.53628418 116.58213257 -124.47253418 108.59213257 C-106.65253418 108.59213257 -88.83253418 108.59213257 -70.47253418 108.59213257 C-70.47253418 105.29213257 -70.47253418 101.99213257 -70.47253418 98.59213257 C-88.29253418 98.59213257 -106.11253418 98.59213257 -124.47253418 98.59213257 C-124.47253418 72.52213257 -124.47253418 46.45213257 -124.47253418 19.59213257 C-115.94827861 17.15663098 -107.67369524 14.86834822 -99.03503418 13.09213257 C-91.41462379 11.48198671 -83.91311345 9.6988925 -76.40612793 7.62338257 C-70.52237788 6.0382839 -64.5580643 4.78023449 -58.61193848 3.45419312 C-53.11179515 2.21851176 -47.66183522 0.88557587 -42.22253418 -0.59536743 C-26.75592694 -4.76728123 -15.48814553 -3.91975478 0 0 Z M-47.47253418 77.59213257 C-47.47253418 78.25213257 -47.47253418 78.91213257 -47.47253418 79.59213257 C-48.46253418 79.92213257 -49.45253418 80.25213257 -50.47253418 80.59213257 C-52.0965212 82.93160874 -52.0965212 82.93160874 -53.53503418 85.77963257 C-54.04163574 86.72193726 -54.5482373 87.66424194 -55.07019043 88.63510132 C-58.85668285 96.61943213 -59.99790031 104.71328904 -57.74987793 113.37728882 C-55.72549179 118.68003308 -53.09333535 124.18312979 -49.47253418 128.59213257 C-48.81253418 128.59213257 -48.15253418 128.59213257 -47.47253418 128.59213257 C-47.14253418 129.58213257 -46.81253418 130.57213257 -46.47253418 131.59213257 C-39.09980057 137.41750234 -29.93662316 141.12862554 -20.47253418 140.52963257 C-9.04069599 138.85490468 -0.01064435 134.31543268 6.91809082 125.04135132 C13.01445655 115.76362968 15.06279302 106.04944339 13.06652832 95.05307007 C10.09972979 85.17537613 4.07810206 78.14860663 -4.47253418 72.59213257 C-5.1144873 72.15642944 -5.75644043 71.72072632 -6.41784668 71.27182007 C-19.59003314 63.88506453 -36.60256712 68.36530006 -47.47253418 77.59213257 Z " fill="#6AB343" transform="translate(172.4725341796875,12.407867431640625)"/>
<path d="M0 0 C2.57637471 1.88515223 3.59667428 3.19334857 5 6 C5.37410381 10.95687553 5.12432647 14.03450872 2 18 C1.34 18 0.68 18 0 18 C0.02094727 18.59014893 0.04189453 19.18029785 0.06347656 19.78833008 C0.14663683 22.46287999 0.19865691 25.13715815 0.25 27.8125 C0.28351563 28.74126953 0.31703125 29.67003906 0.3515625 30.62695312 C0.36445313 31.51962891 0.37734375 32.41230469 0.390625 33.33203125 C0.41157227 34.15421143 0.43251953 34.9763916 0.45410156 35.82348633 C0 38 0 38 -2.02441406 39.79174805 C-2.67635742 40.19047119 -3.32830078 40.58919434 -4 41 C-4.99 40.34 -5.98 39.68 -7 39 C-6.814375 38.0925 -6.62875 37.185 -6.4375 36.25 C-6.03628804 33.26956829 -6.10628234 31.78045493 -7 29 C-7 28.34 -7 27.68 -7 27 C-7.7425 25.824375 -7.7425 25.824375 -8.5 24.625 C-10 22 -10 22 -10 18 C-10.99 17.67 -11.98 17.34 -13 17 C-15.52510323 13.54459558 -15.36397339 10.14929662 -15 6 C-11.70371382 -0.89223474 -7.12107999 -0.8628126 0 0 Z M-8 5 C-7.67 6.32 -7.34 7.64 -7 9 C-5.68 9 -4.36 9 -3 9 C-2.67 7.68 -2.34 6.36 -2 5 C-5.04913228 3.98888907 -5.04913228 3.98888907 -8 5 Z " fill="#6AB442" transform="translate(155,99)"/>
</svg>
