<?xml version="1.0" encoding="UTF-8"?>
<svg version="1.1" xmlns="http://www.w3.org/2000/svg" width="500" height="500">
<path d="M0 0 C1.08075302 -0.00807175 2.16150604 -0.01614349 3.27500916 -0.02445984 C5.55840492 -0.03822247 7.84182058 -0.04897918 10.12524414 -0.05688477 C12.40818528 -0.06830671 14.69110185 -0.08859922 16.97387695 -0.1184082 C85.45402913 -1.00905321 146.94424504 29.31898729 195.52734375 76.23828125 C198.01033677 78.79728426 200.27260805 81.47738039 202.52734375 84.23828125 C203.47717567 85.35345172 204.42777346 86.46797009 205.37890625 87.58203125 C221.83181106 107.0828843 251.52734375 144.94412689 251.52734375 172.23828125 C252.18734375 172.23828125 252.84734375 172.23828125 253.52734375 172.23828125 C256.84120366 183.04146457 259.83906518 193.79477036 261.83984375 204.92578125 C261.9987207 205.80830566 262.15759766 206.69083008 262.32128906 207.60009766 C263.97921589 217.25433312 264.68850933 226.7703949 264.73046875 236.5625 C264.73616882 237.62580032 264.7418689 238.68910065 264.7477417 239.78462219 C264.7571397 242.0293378 264.76370484 244.27406689 264.76757812 246.51879883 C264.77718821 249.87151831 264.80822269 253.22359823 264.83984375 256.57617188 C264.93402429 275.47439832 263.44764109 294.01353272 258.46484375 312.30078125 C258.20896484 313.29142578 257.95308594 314.28207031 257.68945312 315.30273438 C254.23321023 328.53241477 254.23321023 328.53241477 251.52734375 331.23828125 C250.60026643 333.77150527 249.73806781 336.30026252 248.90234375 338.86328125 C245.87078365 347.7672499 241.96873115 355.96245505 237.52734375 364.23828125 C237.18864258 364.88087891 236.84994141 365.52347656 236.50097656 366.18554688 C222.51280583 392.62093126 203.45061173 417.90118468 180.66162109 437.39111328 C178.28846473 439.44502555 175.98861217 441.56954227 173.6796875 443.6953125 C168.72830125 448.1524091 163.55235992 452.11777952 158.08984375 455.92578125 C157.11845459 456.60423096 156.14706543 457.28268066 155.14624023 457.98168945 C144.38330855 465.30307012 132.9510872 471.01263437 121.31152344 476.78466797 C118.88111968 478.05357572 116.61573981 479.40845582 114.328125 480.9140625 C110.17325899 483.59710998 105.82757403 485.18017838 101.15234375 486.73828125 C100.2802124 487.03452393 99.40808105 487.3307666 98.50952148 487.63598633 C86.37754271 491.69828283 74.21333311 495.03902883 61.65234375 497.48828125 C60.820979 497.65158936 59.98961426 497.81489746 59.13305664 497.9831543 C48.83750987 499.891017 38.50437414 500.39432222 28.05078125 500.40625 C27.0006485 500.4095784 25.95051575 500.4129068 24.86856079 500.41633606 C22.66188998 500.42136048 20.45521168 500.42374579 18.24853516 500.42358398 C14.9311829 500.42576231 11.61416834 500.44394451 8.296875 500.46289062 C-7.85228797 500.50659107 -23.59568643 499.689771 -39.41015625 496.17578125 C-40.34472656 495.97098145 -41.27929688 495.76618164 -42.2421875 495.55517578 C-77.24621689 487.46451348 -77.24621689 487.46451348 -87.39550781 479.78295898 C-89.43402939 478.26700623 -91.38525187 477.19709259 -93.67578125 476.109375 C-94.88669434 475.52470459 -94.88669434 475.52470459 -96.12207031 474.92822266 C-96.98026367 474.51491699 -97.83845703 474.10161133 -98.72265625 473.67578125 C-131.53350081 457.51937514 -162.72649275 432.55225382 -184.27832031 402.88134766 C-185.47886685 401.22973724 -186.70423365 399.5989884 -187.93359375 397.96875 C-226.63727147 345.97212935 -242.43513456 279.16793045 -233.95581055 215.08959961 C-228.1853032 176.68676118 -214.34677454 138.84190999 -191.47265625 107.23828125 C-190.77914062 106.27277344 -190.085625 105.30726562 -189.37109375 104.3125 C-182.19276155 94.53424183 -174.54717067 84.85415014 -165.71484375 76.5078125 C-164.34440444 75.23667915 -164.34440444 75.23667915 -163.47265625 73.23828125 C-162.81265625 73.23828125 -162.15265625 73.23828125 -161.47265625 73.23828125 C-161.47265625 72.57828125 -161.47265625 71.91828125 -161.47265625 71.23828125 C-160.07421875 69.828125 -160.07421875 69.828125 -158.09765625 68.17578125 C-154.98115394 65.53707024 -151.95949726 62.83512457 -148.97265625 60.05078125 C-109.25580269 24.33593126 -53.69460159 0.39372588 0 0 Z " fill="#010101" transform="translate(235.47265625,-0.23828125)"/>
<path d="M0 0 C17.16 0 34.32 0 52 0 C54.11614507 3.17421761 54.68926138 5.36570814 55.5 9.0625 C55.75652344 10.21878906 56.01304687 11.37507813 56.27734375 12.56640625 C56.90308726 15.53953354 57.49258621 18.51580576 58.0625 21.5 C58.71232106 24.86924029 59.65661302 27.83344498 61 31 C61 31.99 61 32.98 61 34 C61.66 34 62.32 34 63 34 C63.19335938 34.85722656 63.38671875 35.71445313 63.5859375 36.59765625 C65.1874658 43.77964369 65.1874658 43.77964369 67.125 50.875 C68.06641863 54.23720938 68.5760421 57.53767713 69 61 C69.66 61 70.32 61 71 61 C71.15855469 61.77601563 71.31710937 62.55203125 71.48046875 63.3515625 C72.77115096 69.32720719 74.28522948 75.02389756 76.4375 80.75 C78.71608336 86.85825057 80.29532602 92.95377284 81.65600586 99.31542969 C82.41312349 102.79792406 83.18403219 105.91205474 85 109 C85.17015625 108.38253906 85.3403125 107.76507813 85.515625 107.12890625 C86.75310148 102.8043209 88.06111001 98.68921171 90 94.625 C92.07297431 90.17165215 93.16153753 85.6581137 94.2734375 80.88671875 C95.22365604 77.1113881 96.54341599 73.60677945 98 70 C98.66 70 99.32 70 100 70 C100.08636719 69.27296875 100.17273438 68.5459375 100.26171875 67.796875 C101.03420554 62.26898786 102.07552773 57.41379079 104.375 52.3125 C107.73342147 44.82830259 109.30568703 36.98882764 111 29 C111.66 29 112.32 29 113 29 C113 28.01 113 27.02 113 26 C113.66 26 114.32 26 115 26 C115.103125 24.96875 115.20625 23.9375 115.3125 22.875 C116.22225348 15.53104802 117.65904208 8.02287375 120 1 C136.83 1 153.66 1 171 1 C171 98.35 171 195.7 171 296 C156.81 296 142.62 296 128 296 C126.1114323 294.1114323 126.85448489 290.82180092 126.84178162 288.31199646 C126.83437465 287.25103299 126.83437465 287.25103299 126.82681805 286.1686359 C126.81136921 283.78096484 126.80306258 281.39332081 126.79467773 279.00561523 C126.785105 277.30105346 126.77509529 275.59649409 126.76467896 273.89193726 C126.73755824 269.24959787 126.71658761 264.60724824 126.69667697 259.96487308 C126.67486146 255.11882059 126.64745115 250.27279992 126.62062073 245.42677307 C126.57063367 236.24346343 126.52571723 227.06013619 126.48259836 217.87679201 C126.43327726 207.4247097 126.37834018 196.9726593 126.32291877 186.52060783 C126.20900646 165.01376827 126.10218767 143.50689825 126 122 C125.65832291 123.16886246 125.31664581 124.33772491 124.96461487 125.54200745 C124.51104136 127.08994845 124.0574205 128.63787557 123.60375977 130.18579102 C123.3791935 130.95448769 123.15462723 131.72318436 122.92325592 132.51517487 C121.39979151 137.7087125 119.78600214 142.84939523 117.9375 147.9375 C117.68637451 148.64076416 117.43524902 149.34402832 117.17651367 150.06860352 C115.80054923 153.89248932 114.35236059 157.67600847 112.8125 161.4375 C109.88267179 168.62341611 107.97359351 176.06896867 106 183.5625 C104.17758569 190.48062209 102.08929501 197.20722995 99.5 203.875 C98.2732228 207.05953563 97.39746525 210.25423229 96.5625 213.5625 C95.69532981 216.86773506 94.80160486 219.65801156 93 222.5625 C90.86568528 226.23085343 89.7928388 229.62717349 88.66015625 233.6875 C87.94157387 236.2046643 87.040619 238.59857154 86 241 C85.34 241 84.68 241 84 241 C79.13170178 226.5682859 79.13170178 226.5682859 77.5 220.9375 C75.93654288 215.560292 73.95718299 210.3403512 71.98828125 205.1015625 C71 202 71 202 71 198 C70.34 198 69.68 198 69 198 C67.86235649 193.73383684 67 190.43513689 67 186 C66.34 186 65.68 186 65 186 C64.74605469 185.02160156 64.49210937 184.04320312 64.23046875 183.03515625 C61.963674 174.32684107 61.963674 174.32684107 59.25 165.75 C58 162 58 162 58 159 C57.34 159 56.68 159 56 159 C55.76925781 158.07960938 55.53851563 157.15921875 55.30078125 156.2109375 C52.66559008 145.98264607 49.61231949 136.01865424 45.42211914 126.29882812 C44.95281982 125.21021484 44.48352051 124.12160156 44 123 C43.99576806 123.88552016 43.99153612 124.77104033 43.98717594 125.68339443 C43.88401759 147.19770484 43.7754024 168.71198161 43.66066074 190.22623348 C43.60530587 200.63022152 43.55182022 211.03421299 43.50268555 221.43823242 C43.45987138 230.50292429 43.41360049 239.56759067 43.36312145 248.63224322 C43.33649814 253.43501112 43.3116446 258.2377739 43.29092598 263.04057121 C43.27139386 267.55569278 43.24726056 272.07076574 43.21950912 276.58584404 C43.21012048 278.24796164 43.20245177 279.91008992 43.19658089 281.57222366 C43.18835036 283.83152309 43.17408265 286.09070357 43.15821838 288.34996033 C43.15176583 289.61742568 43.14531328 290.88489103 43.1386652 292.19076443 C43 295 43 295 42 296 C28.14 296 14.28 296 0 296 C0 198.32 0 100.64 0 0 Z " fill="#FDFDFD" transform="translate(228,102)"/>
<path d="M0 0 C0.99 0 1.98 0 3 0 C3 0.66 3 1.32 3 2 C4.093125 2.103125 5.18625 2.20625 6.3125 2.3125 C10.06399892 3.011932 10.69835795 3.25994995 13 6 C15.70726154 7.55115629 18.12920438 8.32907473 21.1875 8.875 C27.07848084 10.10754459 32.39945986 12.37466242 37.5 15.5625 C39.84608281 16.91149762 41.86729281 17.6420615 44.4375 18.4375 C48.47500756 19.70508958 51.51958273 21.5718019 55 24 C57.22602615 24.76939681 57.22602615 24.76939681 59 25 C59 25.66 59 26.32 59 27 C63.95 27.99 63.95 27.99 69 29 C69 29.66 69 30.32 69 31 C70.175625 31.12375 70.175625 31.12375 71.375 31.25 C75.3678367 32.07610414 78.83206352 33.45233001 82.5859375 35.01171875 C85.35046414 36.1434748 88.15199793 37.10063093 91 38 C91 38.66 91 39.32 91 40 C92.58298026 40.4803318 94.16639978 40.95921612 95.75 41.4375 C96.63171875 41.70433594 97.5134375 41.97117188 98.421875 42.24609375 C100.60565835 42.88468494 102.78835498 43.46775833 105 44 C105 44.66 105 45.32 105 46 C106.010625 46.103125 107.02125 46.20625 108.0625 46.3125 C112.21218208 47.03704767 115.21356263 48.22269266 119 50 C119 50.66 119 51.32 119 52 C119.556875 52.18175781 120.11375 52.36351562 120.6875 52.55078125 C125.84196991 54.24862185 130.93010615 56.06422235 136 58 C136 58.66 136 59.32 136 60 C137.65 60.33 139.3 60.66 141 61 C141 72.22 141 83.44 141 95 C134.36111111 98.31944444 134.36111111 98.31944444 130.625 99.4375 C126.84593802 100.64857523 123.43228669 102.18398177 119.921875 104.0234375 C118.01967369 104.9900032 116.0991767 105.81738226 114.125 106.625 C110.97087485 107.78749431 110.97087485 107.78749431 109 110 C107.06335095 110.82379848 105.10001946 111.58548444 103.125 112.3125 C98.57937686 114.01208033 94.0884819 115.7826302 89.625 117.6875 C85.4550423 119.44618243 81.38831977 120.90292006 77 122 C77 122.66 77 123.32 77 124 C73.535 124.495 73.535 124.495 70 125 C70 125.66 70 126.32 70 127 C67.91780951 127.81542431 65.83420239 128.62723189 63.75 129.4375 C62.58984375 129.88996094 61.4296875 130.34242188 60.234375 130.80859375 C57.81033692 131.70150633 55.51713525 132.45794365 53 133 C53 133.66 53 134.32 53 135 C51.02 135.33 49.04 135.66 47 136 C47 136.66 47 137.32 47 138 C45.989375 138.20625 44.97875 138.4125 43.9375 138.625 C38.81895241 139.87701884 34.03565494 141.92214353 29.19311523 143.96728516 C26.29026826 145.17497095 24.17872463 146 21 146 C21 146.66 21 147.32 21 148 C17.7 148.99 14.4 149.98 11 151 C11 151.66 11 152.32 11 153 C9.02 153.33 7.04 153.66 5 154 C5 154.66 5 155.32 5 156 C3.35 156 1.7 156 0 156 C0 142.8 0 129.6 0 116 C8 113 8 113 11 113 C11 112.34 11 111.68 11 111 C12.66289063 110.49339844 12.66289063 110.49339844 14.359375 109.9765625 C15.82297298 109.52622466 17.28651155 109.07569367 18.75 108.625 C19.47960937 108.40328125 20.20921875 108.1815625 20.9609375 107.953125 C25.21043025 106.64031897 25.21043025 106.64031897 29.265625 104.8359375 C31 104 31 104 35 104 C35 103.34 35 102.68 35 102 C35.57443848 101.80365967 36.14887695 101.60731934 36.74072266 101.4050293 C39.37031896 100.5035064 41.99765442 99.59556033 44.625 98.6875 C45.52863281 98.37876953 46.43226562 98.07003906 47.36328125 97.75195312 C51.18632045 96.42644683 54.81253316 95.09373342 58.4375 93.28125 C61.4747678 91.7626161 63.64835669 91.76059691 67 92 C67 91.34 67 90.68 67 90 C67.61746094 89.75765625 68.23492187 89.5153125 68.87109375 89.265625 C75.80805002 86.52040639 82.71097102 83.73760022 89.3125 80.25 C92 79 92 79 96 79 C96 78.34 96 77.68 96 77 C95.13117188 76.71640625 94.26234375 76.4328125 93.3671875 76.140625 C90.25034318 75.08480303 87.19091895 73.94451387 84.125 72.75 C79.13792919 70.81751006 74.13759348 68.92724075 69.125 67.0625 C63.73803636 65.05643241 58.39008495 62.97116598 53.0625 60.8125 C48.96862107 59.15504162 44.89651596 57.58800987 40.6875 56.25 C37 55 37 55 35 53 C32.97955123 52.23323689 30.93374458 51.53204614 28.875 50.875 C27.77929688 50.52179688 26.68359375 50.16859375 25.5546875 49.8046875 C24.29011719 49.40636719 24.29011719 49.40636719 23 49 C23 48.34 23 47.68 23 47 C20.36 46.67 17.72 46.34 15 46 C15 45.34 15 44.68 15 44 C13.783125 43.855625 12.56625 43.71125 11.3125 43.5625 C8.17329623 43.17219047 5.0924866 42.67648144 2 42 C2 41.34 2 40.68 2 40 C1.34 40 0.68 40 0 40 C0 26.8 0 13.6 0 0 Z " fill="#F9F9F9" transform="translate(53,172)"/>
<path d="M0 0 C17.16 0 34.32 0 52 0 C54 3 54 3 53.625 5.1875 C53.41875 5.785625 53.2125 6.38375 53 7 C52.505 4.525 52.505 4.525 52 2 C35.17 2 18.34 2 1 2 C1 98.36 1 194.72 1 294 C14.2 294 27.4 294 41 294 C41 235.59 41 177.18 41 117 C42.32 117.66 43.64 118.32 45 119 C45.75 122.625 45.75 122.625 46 126 C45.34 125.01 44.68 124.02 44 123 C43.99576806 123.88552016 43.99153612 124.77104033 43.98717594 125.68339443 C43.88401759 147.19770484 43.7754024 168.71198161 43.66066074 190.22623348 C43.60530587 200.63022152 43.55182022 211.03421299 43.50268555 221.43823242 C43.45987138 230.50292429 43.41360049 239.56759067 43.36312145 248.63224322 C43.33649814 253.43501112 43.3116446 258.2377739 43.29092598 263.04057121 C43.27139386 267.55569278 43.24726056 272.07076574 43.21950912 276.58584404 C43.21012048 278.24796164 43.20245177 279.91008992 43.19658089 281.57222366 C43.18835036 283.83152309 43.17408265 286.09070357 43.15821838 288.34996033 C43.15176583 289.61742568 43.14531328 290.88489103 43.1386652 292.19076443 C43 295 43 295 42 296 C28.14 296 14.28 296 0 296 C0 198.32 0 100.64 0 0 Z " fill="#A6A6A6" transform="translate(228,102)"/>
<path d="M0 0 C16.83 0 33.66 0 51 0 C51 97.35 51 194.7 51 295 C36.81 295 22.62 295 8 295 C6.11376547 293.11376547 6.85867821 289.83954697 6.84851074 287.33218384 C6.84427833 286.62699155 6.84004592 285.92179927 6.83568525 285.19523752 C6.82259148 282.81456389 6.816619 280.43392381 6.81054688 278.05322266 C6.80260974 276.35352877 6.79422221 274.65383694 6.78541565 272.95414734 C6.76731912 269.28512793 6.75231761 265.61611317 6.73963928 261.94707108 C6.71947002 256.14928538 6.69181006 250.35155061 6.66296387 244.55380249 C6.60278716 232.24422548 6.55099915 219.93461793 6.5 207.625 C6.44495702 194.34474386 6.3884827 181.06450315 6.32245111 167.78429639 C6.29406202 162.01725498 6.27047984 156.25021959 6.25052643 150.48314309 C6.2371563 146.89823809 6.21974257 143.31336109 6.20121574 139.72847939 C6.19344778 138.0623616 6.18738342 136.39623489 6.18312263 134.73010445 C6.17709108 132.4606162 6.16505003 130.19123733 6.15148926 127.92178345 C6.14375866 126.01423751 6.14375866 126.01423751 6.13587189 124.06815529 C6.13854731 120.95906317 6.13854731 120.95906317 5 118 C5.66 117.01 6.32 116.02 7 115 C7.66 115 8.32 115 9 115 C9 174.07 9 233.14 9 294 C22.53 294 36.06 294 50 294 C50 197.31 50 100.62 50 1 C33.83 1 17.66 1 1 1 C0.34 4.63 -0.32 8.26 -1 12 C-1.99 12.495 -1.99 12.495 -3 13 C-2.68991116 11.39536551 -2.37683713 9.79130769 -2.0625 8.1875 C-1.88847656 7.29417969 -1.71445312 6.40085937 -1.53515625 5.48046875 C-1 3 -1 3 0 0 Z " fill="#B3B3B3" transform="translate(348,103)"/>
<path d="M0 0 C1.32 0.66 2.64 1.32 4 2 C4.75 5.625 4.75 5.625 5 9 C4.34 8.01 3.68 7.02 3 6 C2.67 62.76 2.34 119.52 2 178 C-11.86 178 -25.72 178 -40 178 C-40 177.67 -40 177.34 -40 177 C-26.8 177 -13.6 177 0 177 C0 118.59 0 60.18 0 0 Z " fill="#B7B7B7" transform="translate(269,219)"/>
<path d="M0 0 C0.33 0 0.66 0 1 0 C1 57.75 1 115.5 1 175 C0.67 175 0.34 175 0 175 C-0.495 93.325 -0.495 93.325 -1 10 C-1.66 10.66 -2.32 11.32 -3 12 C-2.25749403 7.91621717 -1.17076699 3.98060777 0 0 Z " fill="#131313" transform="translate(354,222)"/>
<path d="M0 0 C1.79068573 2.6860286 2.66055791 4.6626589 3.625 7.6875 C3.88539063 8.49574219 4.14578125 9.30398437 4.4140625 10.13671875 C4.60742188 10.75160156 4.80078125 11.36648437 5 12 C4.34 11.67 3.68 11.34 3 11 C3 10.01 3 9.02 3 8 C2.34 8 1.68 8 1 8 C1 63.11 1 118.22 1 175 C0.67 175 0.34 175 0 175 C0 117.25 0 59.5 0 0 Z " fill="#212121" transform="translate(271,222)"/>
<path d="M0 0 C0.99 0 1.98 0 3 0 C3 0.66 3 1.32 3 2 C4.134375 2.12375 5.26875 2.2475 6.4375 2.375 C7.613125 2.58125 8.78875 2.7875 10 3 C10.33 3.66 10.66 4.32 11 5 C6.545 4.01 6.545 4.01 2 3 C2.33 14.88 2.66 26.76 3 39 C4.98 39.99 6.96 40.98 9 42 C6.3333581 43.33332095 4.83319697 42.67102033 2 42 C2 41.34 2 40.68 2 40 C1.34 40 0.68 40 0 40 C0 26.8 0 13.6 0 0 Z " fill="#B4B4B4" transform="translate(53,172)"/>
<path d="M0 0 C0.66 0.33 1.32 0.66 2 1 C1.45730469 1.51949219 0.91460937 2.03898437 0.35546875 2.57421875 C-4.13097222 6.90194926 -4.13097222 6.90194926 -7.75 11.9375 C-8.1625 12.618125 -8.575 13.29875 -9 14 C-9.61907227 14.14687256 -10.23814453 14.29374512 -10.87597656 14.44506836 C-13.43094935 15.11259171 -14.40784738 16.0600828 -16.234375 17.94140625 C-17.09482422 18.81635742 -17.09482422 18.81635742 -17.97265625 19.70898438 C-18.55917969 20.32064453 -19.14570312 20.93230469 -19.75 21.5625 C-20.35199219 22.17802734 -20.95398438 22.79355469 -21.57421875 23.42773438 C-23.05634381 24.94514813 -24.5290967 26.47170596 -26 28 C-26.66 27.67 -27.32 27.34 -28 27 C-27.50628906 26.51789063 -27.01257813 26.03578125 -26.50390625 25.5390625 C-25.54291016 24.59160156 -25.54291016 24.59160156 -24.5625 23.625 C-23.92441406 22.99851562 -23.28632812 22.37203125 -22.62890625 21.7265625 C-20.92117824 20.08276939 -20.92117824 20.08276939 -20 18 C-19.34 18 -18.68 18 -18 18 C-18 17.34 -18 16.68 -18 16 C-16.6015625 14.58984375 -16.6015625 14.58984375 -14.625 12.9375 C-11.20148675 10.02935433 -7.83383262 7.07339727 -4.5 4.0625 C-3.6440625 3.29035156 -2.788125 2.51820312 -1.90625 1.72265625 C-0.96265625 0.86994141 -0.96265625 0.86994141 0 0 Z " fill="#262123" transform="translate(92,55)"/>
<path d="M0 0 C0.33 0 0.66 0 1 0 C1 13.2 1 26.4 1 40 C0.67 40 0.34 40 0 40 C-0.33 30.1 -0.66 20.2 -1 10 C-1.66 10.66 -2.32 11.32 -3 12 C-2.25749403 7.91621717 -1.17076699 3.98060777 0 0 Z " fill="#171717" transform="translate(354,222)"/>
<path d="M0 0 C-1.32 0.33 -2.64 0.66 -4 1 C-4 1.66 -4 2.32 -4 3 C-7.3 3.66 -10.6 4.32 -14 5 C-14 5.66 -14 6.32 -14 7 C-17.30998105 9.20665404 -19.82021436 9.78262095 -23.6875 10.625 C-25.45673828 11.01558594 -25.45673828 11.01558594 -27.26171875 11.4140625 C-28.61716797 11.70410156 -28.61716797 11.70410156 -30 12 C-28.45176172 8.90352345 -25.94103227 8.71084233 -22.75 7.5625 C-18.50857194 6.03193942 -14.83938663 4.34664323 -11 2 C-9.4581527 1.36408262 -7.89501865 0.77661062 -6.3125 0.25 C-5.54550781 -0.01296875 -4.77851563 -0.2759375 -3.98828125 -0.546875 C-2 -1 -2 -1 0 0 Z " fill="#717171" transform="translate(194,268)"/>
<path d="M0 0 C0.66666667 1.33333333 1.33333333 2.66666667 2 4 C2.3403125 4.598125 2.680625 5.19625 3.03125 5.8125 C4.15674272 8.35393517 4.40675506 10.48556409 4.625 13.25 C4.69976562 14.14203125 4.77453125 15.0340625 4.8515625 15.953125 C4.90054687 16.62859375 4.94953125 17.3040625 5 18 C0.84059751 11.76089627 -0.3884811 7.38114092 0 0 Z " fill="#6E6E6E" transform="translate(285,118)"/>
<path d="M0 0 C0.33 0 0.66 0 1 0 C1 2.64 1 5.28 1 8 C0.34 8 -0.32 8 -1 8 C-0.938125 8.763125 -0.87625 9.52625 -0.8125 10.3125 C-1 13 -1 13 -2.5 14.8125 C-2.995 15.204375 -3.49 15.59625 -4 16 C-3.47606294 10.13190493 -2.23891142 5.45126259 0 0 Z " fill="#9E9E9E" transform="translate(326,172)"/>
<path d="M0 0 C0 0.33 0 0.66 0 1 C-1.58409994 0.88512252 -3.16728963 0.75765492 -4.75 0.625 C-5.63171875 0.55539062 -6.5134375 0.48578125 -7.421875 0.4140625 C-9.99066382 0.00149945 -11.75841015 -0.71160957 -14 -2 C-8.0819503 -3.32854177 -5.22270869 -2.66464729 0 0 Z " fill="#8F8D8F" transform="translate(206,496)"/>
<path d="M0 0 C0.66 0.33 1.32 0.66 2 1 C-0.97 3.475 -0.97 3.475 -4 6 C-2.84826645 3.53199953 -1.95216435 1.95216435 0 0 Z M-8 9 C-7.67 9.99 -7.34 10.98 -7 12 C-7.99 12.66 -8.98 13.32 -10 14 C-10 11 -10 11 -8 9 Z " fill="#161212" transform="translate(92,55)"/>
<path d="M0 0 C1.79068573 2.6860286 2.66055791 4.6626589 3.625 7.6875 C3.88539063 8.49574219 4.14578125 9.30398437 4.4140625 10.13671875 C4.60742188 10.75160156 4.80078125 11.36648437 5 12 C4.34 11.67 3.68 11.34 3 11 C3 10.01 3 9.02 3 8 C2.34 8 1.68 8 1 8 C0.67 8.66 0.34 9.32 0 10 C0 6.7 0 3.4 0 0 Z " fill="#2B2B2B" transform="translate(271,222)"/>
<path d="M0 0 C0.33 0 0.66 0 1 0 C1.22893297 3.03336186 1.36475845 5.97465051 1 9 C-1 11.0625 -1 11.0625 -3 12 C-2.25749403 7.91621717 -1.17076699 3.98060777 0 0 Z " fill="#2A2A2A" transform="translate(354,222)"/>
<path d="M0 0 C-0.99 1.485 -0.99 1.485 -2 3 C-3.65 2.67 -5.3 2.34 -7 2 C-7.33 2.99 -7.66 3.98 -8 5 C-8 4.34 -8 3.68 -8 3 C-9.32 2.67 -10.64 2.34 -12 2 C-10.56656 1.46809459 -9.12804633 0.94984742 -7.6875 0.4375 C-6.48673828 0.00244141 -6.48673828 0.00244141 -5.26171875 -0.44140625 C-3 -1 -3 -1 0 0 Z " fill="#2D2A2D" transform="translate(179,11)"/>
<path d="M0 0 C1.45606519 4.52092968 0.27032841 7.51648796 -1 12 C-1.66 12 -2.32 12 -3 12 C-2.88541307 10.56163249 -2.75790884 9.12429034 -2.625 7.6875 C-2.55539062 6.88699219 -2.48578125 6.08648437 -2.4140625 5.26171875 C-2 3 -2 3 0 0 Z " fill="#7F7F7F" transform="translate(344,116)"/>
<path d="M0 0 C0.66 0.33 1.32 0.66 2 1 C-2.455 3.97 -2.455 3.97 -7 7 C-7 5.68 -7 4.36 -7 3 C-4.69631264 1.93347808 -2.35981813 0.93578995 0 0 Z " fill="#CCCCCC" transform="translate(61,285)"/>
<path d="M0 0 C-7.28571429 4.57142857 -7.28571429 4.57142857 -12 4 C-8.71298741 1.21868166 -4.24676932 -2.12338466 0 0 Z " fill="#B8B8B8" transform="translate(104,270)"/>
<path d="M0 0 C3.00617269 3.00617269 2.59585316 5.82381598 3 10 C1.5 8.9375 1.5 8.9375 0 7 C-0.1875 3.3125 -0.1875 3.3125 0 0 Z " fill="#666666" transform="translate(304,318)"/>
<path d="M0 0 C4.95 0.99 4.95 0.99 10 2 C10 2.99 10 3.98 10 5 C8.51800098 4.55090939 7.03944764 4.09043436 5.5625 3.625 C4.73878906 3.36976563 3.91507813 3.11453125 3.06640625 2.8515625 C1 2 1 2 0 0 Z " fill="#555555" transform="translate(174,224)"/>
<path d="M0 0 C0.33 0.99 0.66 1.98 1 3 C-0.65 4.65 -2.3 6.3 -4 8 C-4.66 7.67 -5.32 7.34 -6 7 C-4.02 4.69 -2.04 2.38 0 0 Z " fill="#252122" transform="translate(63,83)"/>
</svg>
